<?xml version="1.0" encoding="UTF-8" standalone="no"?>
<svg
   xmlns:dc="http://purl.org/dc/elements/1.1/"
   xmlns:cc="http://creativecommons.org/ns#"
   xmlns:rdf="http://www.w3.org/1999/02/22-rdf-syntax-ns#"
   xmlns:svg="http://www.w3.org/2000/svg"
   xmlns="http://www.w3.org/2000/svg"
   xmlns:sodipodi="http://sodipodi.sourceforge.net/DTD/sodipodi-0.dtd"
   xmlns:inkscape="http://www.inkscape.org/namespaces/inkscape"
   width="230"
   height="64"
   viewBox="0 0 230 64"
   fill="none"
   version="1.1"
   id="svg30"
   sodipodi:docname="logo_ed.svg"
   inkscape:version="1.0.1 (3bc2e813f5, 2020-09-07)" style="background-color: #fff">
  <metadata
     id="metadata36">
    <rdf:RDF>
      <cc:Work
         rdf:about="">
        <dc:format>image/svg+xml</dc:format>
        <dc:type
           rdf:resource="http://purl.org/dc/dcmitype/StillImage" />
      </cc:Work>
    </rdf:RDF>
  </metadata>
  <defs
     id="defs34" />
  <sodipodi:namedview
     pagecolor="#ffffff"
     bordercolor="#666666"
     borderopacity="1"
     objecttolerance="10"
     gridtolerance="10"
     guidetolerance="10"
     inkscape:pageopacity="0"
     inkscape:pageshadow="2"
     inkscape:window-width="1600"
     inkscape:window-height="837"
     id="namedview32"
     showgrid="false"
     inkscape:zoom="2.9847826"
     inkscape:cx="132.65621"
     inkscape:cy="-6.4320646"
     inkscape:window-x="-8"
     inkscape:window-y="-8"
     inkscape:window-maximized="1"
     inkscape:current-layer="svg30"
     inkscape:document-rotation="0" />
  <g
     id="g872">
    <path
       d="M 11.213,11.106 A 29.563,29.563 0 0 0 2.59,31.958 c 0,7.808 3.098,15.3 8.622,20.852 a 29.296,29.296 0 0 0 9.54,6.393 29.441,29.441 0 0 0 22.562,0 29.296,29.296 0 0 0 9.54,-6.393 29.563,29.563 0 0 0 8.622,-20.852 c 0,-7.807 -3.098,-15.3 -8.622,-20.852 a 29.297,29.297 0 0 0 -9.537,-6.387 29.44,29.44 0 0 0 -22.553,0 29.298,29.298 0 0 0 -9.538,6.387 h -0.014 z"
       fill="#05171d"
       id="path2"
       style="fill:#000000" />
    <path
       d="M 32.044,63.72 A 31.574,31.574 0 0 1 19.87,61.316 31.42,31.42 0 0 1 9.583,54.412 31.821,31.821 0 0 1 0.296,31.96 31.821,31.821 0 0 1 9.583,9.508 31.583,31.583 0 0 1 19.866,2.62 a 31.737,31.737 0 0 1 24.317,0 31.581,31.581 0 0 1 10.283,6.888 31.821,31.821 0 0 1 9.288,22.452 31.821,31.821 0 0 1 -9.288,22.452 31.423,31.423 0 0 1 -10.269,6.896 31.577,31.577 0 0 1 -12.153,2.412 z m 0,-58.981 A 27.01,27.01 0 0 0 21.64,6.802 26.879,26.879 0 0 0 12.849,12.708 27.302,27.302 0 0 0 4.89,31.96 c 0,7.208 2.859,14.126 7.957,19.252 a 27.011,27.011 0 0 0 8.796,5.895 27.143,27.143 0 0 0 20.804,0 27.01,27.01 0 0 0 8.796,-5.895 27.287,27.287 0 0 0 7.963,-19.252 c 0,-7.21 -2.861,-14.128 -7.963,-19.252 A 26.874,26.874 0 0 0 42.452,6.8 27.007,27.007 0 0 0 32.044,4.738 Z"
       fill="#000000"
       id="path4"
       style="fill:#000000" />
    <path
       d="m 6.69,31.958 c 0,-14.017 11.348,-25.382 25.342,-25.382 13.995,0 25.345,11.365 25.345,25.382 0,14.018 -11.347,25.383 -25.333,25.383 C 18.059,57.341 6.69,45.979 6.69,31.958 Z"
       fill="#fab31e"
       id="path6" />
    <path
       d="M 32.044,58.856 C 17.232,58.856 5.178,46.791 5.178,31.958 5.178,17.125 17.22,5.06 32.044,5.06 c 14.825,0 26.867,12.065 26.867,26.895 0,14.83 -12.065,26.901 -26.868,26.901 z m 0,-50.765 c -13.132,0 -23.817,10.716 -23.817,23.867 0,13.152 10.685,23.868 23.817,23.868 13.132,0 23.82,-10.716 23.82,-23.868 0,-13.15 -10.697,-23.867 -23.82,-23.867 z"
       fill="#ffffff"
       id="path8" />
    <path
       d="m 42.775,47.628 a 1.969,1.969 0 0 1 -0.807,2.047 2,2 0 0 1 -2.962,-0.828 1.969,1.969 0 0 1 0.384,-2.165 1.994,1.994 0 0 1 1.785,-0.581 1.997,1.997 0 0 1 1.288,0.817 c 0.15,0.214 0.256,0.455 0.312,0.71 z"
       fill="#05171d"
       id="path10"
       style="fill:#000000" />
    <path
       d="m 40.828,50.646 c -0.66,10e-4 -1.294,-0.25 -1.773,-0.7 a 2.553,2.553 0 0 1 -0.2,-3.518 2.59,2.59 0 0 1 3.523,-0.391 2.55,2.55 0 0 1 0.587,3.475 2.579,2.579 0 0 1 -2.137,1.134 z m 0,-3.989 c -0.1,0 -0.201,0.011 -0.3,0.033 -0.338,0.08 -0.636,0.28 -0.837,0.562 a 1.416,1.416 0 0 0 0.199,1.87 c 0.256,0.235 0.59,0.368 0.938,0.375 a 1.43,1.43 0 0 0 1.144,-0.595 1.414,1.414 0 0 0 -0.2,-1.874 1.434,1.434 0 0 0 -0.944,-0.37 z M 57.56,45.074 H 36.614 a 1.167,1.167 0 0 1 -0.857,-0.316 1.152,1.152 0 0 1 -0.267,-1.289 1.153,1.153 0 0 1 0.663,-0.626 c 0.148,-0.054 0.304,-0.078 0.461,-0.07 H 57.56 c 0.297,0.015 0.576,0.143 0.781,0.357 a 1.148,1.148 0 0 1 0,1.587 1.162,1.162 0 0 1 -0.781,0.357 z"
       fill="#000000"
       id="path12"
       style="fill:#000000" />
    <path
       d="m 43.386,45.074 a 1.162,1.162 0 0 1 -1.07,-0.712 1.143,1.143 0 0 1 -0.086,-0.44 V 26.94 a 1.28,1.28 0 0 0 -0.8,-1.189 1.3,1.3 0 0 0 -1.69,0.696 1.28,1.28 0 0 0 -0.098,0.492 v 16.983 c 0,0.305 -0.122,0.597 -0.339,0.812 a 1.16,1.16 0 0 1 -1.634,0 1.145,1.145 0 0 1 -0.339,-0.812 V 26.94 c 0,-0.951 0.38,-1.863 1.057,-2.536 a 3.618,3.618 0 0 1 5.101,0 3.574,3.574 0 0 1 1.056,2.535 v 16.983 c 0,0.305 -0.122,0.598 -0.339,0.814 a 1.163,1.163 0 0 1 -0.82,0.338 z"
       fill="#000000"
       id="path14"
       style="fill:#000000" />
    <path
       d="m 39.675,33.34 v -6.46 c 0,-0.393 0.557,-0.893 1.246,-0.893 0.686,0 1.246,0.5 1.246,0.893 v 6.46"
       fill="#05171d"
       id="path16"
       style="fill:#000000" />
    <path
       d="m 43.323,33.34 h -2.315 v -6.186 a 0.3,0.3 0 0 0 -0.177,0 v 6.186 h -2.315 v -6.46 c 0,-1.086 1.123,-2.042 2.396,-2.042 1.273,0 2.396,0.956 2.396,2.042 v 6.46 z"
       fill="#000000"
       id="path18"
       style="fill:#000000" />
    <path
       d="M 38.333,25.987 21.164,17.545 V 31.72 l -8.96,13.181 7.487,4.4 c 0.722,-1.066 0.434,-2.903 -1.198,-4.21 l 6.064,-8.733 3.106,12.848 8.241,-2.75 c -0.37,-1.233 -1.976,-2.165 -4.025,-1.713 L 28.75,31.72 v -4.069 l 7.268,3.2 c 0.678,0.344 1.46,0.423 2.193,0.223 a 3.044,3.044 0 0 0 1.77,-1.307 c 0.748,-1.306 -0.093,-2.86 -1.648,-3.78 z"
       fill="#fab31e"
       id="path20" />
    <path
       d="M 20.149,51.331 10.039,45.377 19.622,31.25 V 15.107 l 19.466,9.576 c 2.396,1.411 3.321,3.87 2.201,5.817 a 4.527,4.527 0 0 1 -1.67,1.613 4.562,4.562 0 0 1 -2.256,0.578 4.49,4.49 0 0 1 -2.015,-0.474 l -5.092,-2.238 v 1.575 l 2.777,11.573 c 2.078,0.048 3.803,1.19 4.312,2.908 l 0.42,1.402 -11.213,3.74 -2.695,-11.16 -3.427,4.92 c 1.291,1.631 1.54,3.703 0.504,5.224 l -0.803,1.19 z m 5.091,-18.617 3.51,14.53 1.998,-0.667 -0.357,-1.488 -3.165,-13.205 v -6.558 l 9.5,4.185 c 0.199,0.103 0.421,0.155 0.646,0.152 a 1.505,1.505 0 0 0 1.279,-0.658 c 0.278,-0.488 -0.318,-1.235 -1.063,-1.69 L 22.674,19.983 v 12.204 l -8.299,12.229 3.145,1.849 -1.096,-0.873 8.822,-12.678 z"
       fill="#fab31e"
       id="path22" />
    <path
       d="m 24.83,17.485 a 3.5,3.5 0 0 0 1.894,-0.656 c 0.553,-0.399 0.976,-0.95 1.216,-1.586 a 3.445,3.445 0 0 0 -0.854,-3.723 3.505,3.505 0 0 0 -3.78,-0.682 3.48,3.48 0 0 0 -1.54,1.278 3.45,3.45 0 0 0 -0.575,1.91 3.532,3.532 0 0 0 1.1,2.478 3.575,3.575 0 0 0 2.539,0.981 z m 13.464,8.487 -17.169,-8.439 v 14.175 l -8.951,13.178 7.487,4.4 c 0.724,-1.063 0.434,-2.902 -1.198,-4.206 l 6.08,-8.734 3.102,12.845 8.233,-2.754 C 35.509,45.202 33.901,44.27 31.853,44.726 L 28.726,31.696 V 27.64 l 7.268,3.2 c 0.68,0.34 1.462,0.416 2.195,0.213 a 3.047,3.047 0 0 0 1.764,-1.314 c 0.734,-1.29 -0.095,-2.843 -1.659,-3.766 z"
       fill="#000000"
       id="path24"
       style="fill:#000000" />
    <path
       d="M 32.044,58.856 C 17.232,58.856 5.178,46.791 5.178,31.958 5.178,17.125 17.22,5.06 32.044,5.06 c 14.825,0 26.867,12.065 26.867,26.895 0,14.83 -12.065,26.901 -26.868,26.901 z m 0,-50.765 c -13.132,0 -23.817,10.716 -23.817,23.867 0,13.152 10.685,23.868 23.817,23.868 13.132,0 23.82,-10.716 23.82,-23.868 0,-13.15 -10.697,-23.867 -23.82,-23.867 z"
       fill="#ffffff"
       id="path26" />
    <path
       d="M 108.636,29.511 H 92.189 V 7.99 h 7.891 v 15.937 h 8.556 z m 20.721,-13.696 h -10.182 v 4.978 h 10.182 z m 1.285,-7.933 h -11.467 v 5.236 h 11.467 z m -12.932,0 h -7.924 v 21.522 h 7.924 z m 13.282,16.072 h -11.817 v 5.45 h 11.817 z M 89.02,15.923 H 78.856 v 4.98 H 89.02 Z M 90.302,7.99 H 78.856 v 5.236 h 11.446 z m 0.35,16.071 H 78.856 v 5.448 H 90.652 V 24.06 Z M 77.385,7.99 H 69.45 v 21.519 h 7.936 V 7.989 Z M 216.32,24.525 c -2.854,-0.276 -4.564,-2.41 -4.564,-5.837 0,-3.536 1.638,-5.656 4.564,-5.933 v -5.39 c -7.652,0.276 -12.578,4.643 -12.578,11.293 0,8.243 6.349,11.104 12.578,11.264 z m 1.44,-17.161 v 5.41 c 2.609,0.33 4.193,2.404 4.193,5.592 0,3.692 -1.461,5.811 -4.193,6.142 v 5.402 c 7.406,-0.345 12.216,-4.724 12.216,-11.285 0,-6.51 -4.953,-10.996 -12.216,-11.26 z m -29.99,0.512 h -7.999 v 21.52 h 7.999 V 7.875 Z m 15.876,21.323 c -0.234,-0.298 -0.386,-0.977 -0.503,-2.14 l -0.078,-0.774 -0.117,-0.742 a 10.324,10.324 0 0 0 -0.272,-1.875 c -0.231,-1.066 -0.542,-1.905 -1.007,-2.485 a 4.722,4.722 0 0 0 -2.554,-1.748 c 2.324,-0.875 3.791,-2.908 3.791,-5.227 0,-2.319 -1.315,-4.212 -3.594,-5.302 -1.548,-0.74 -3.252,-1.03 -6.322,-1.03 h -3.674 v 4.98 h 2.237 c 2.53,0 3.737,0.676 3.737,2.156 0,1.48 -1.09,2.223 -3.309,2.223 h -2.665 v 4.56 h 1.692 c 3.075,0 3.968,0.894 4.36,4.359 0.3,2.679 0.3,2.616 0.578,3.244 h 7.862 l -0.162,-0.2 z m -60.231,-4.677 c -2.453,-0.297 -4.094,-2.518 -4.094,-5.93 0,-3.336 1.629,-5.515 4.094,-5.828 v -5.4 c -6.966,0.265 -12.111,4.933 -12.111,11.294 0,6.442 5.01,10.946 12.111,11.255 v -5.39 z m 1.464,-11.779 c 1.863,0.12 3.175,1.191 3.576,3.108 h 7.735 c -0.38,-4.828 -5.193,-8.335 -11.311,-8.498 z m 3.576,8.172 c -0.366,2.241 -1.662,3.474 -3.576,3.616 v 5.403 c 6.379,-0.095 11.045,-3.673 11.467,-9.02 h -7.891 z M 178.72,7.998 h -22.425 v 5.585 h 22.425 z m -7.265,7.168 h -7.891 V 29.52 h 7.891 z M 118.076,50.524 H 105.21 v 5.504 h 12.866 z m -1.645,-8.221 H 105.21 v 5.027 h 11.221 z m 1.291,-8.013 H 105.21 v 5.286 h 12.512 v -5.287 z m -13.961,0 h -7.772 v 21.735 h 7.772 z M 77.227,34.283 h -7.865 v 21.742 h 7.865 z m 3.809,0 h -2.36 v 5.504 h 0.92 c 4.243,0 6.537,1.893 6.537,5.45 0,3.394 -2.06,5.287 -5.759,5.287 h -1.698 v 5.501 h 2.204 c 4.514,0 7.29,-0.747 9.599,-2.572 2.545,-2.018 3.722,-4.691 3.722,-8.38 0,-6.655 -5.091,-10.79 -13.165,-10.79 z m 75.223,16.84 c -3.087,-0.131 -4.956,-2.32 -4.956,-5.918 0,-3.715 1.797,-5.873 4.956,-6.016 v -5.436 c -7.909,0.152 -13.021,4.6 -13.021,11.42 0,6.735 5.301,11.337 13.021,11.391 z m 1.447,-17.343 v 5.513 c 2.396,0.473 3.86,2.527 3.86,5.596 0,3.572 -1.339,5.683 -3.86,6.156 v 5.49 c 7.247,-0.471 11.925,-4.865 11.925,-11.384 0,-6.477 -4.816,-10.972 -11.925,-11.37 z m 34.203,0.453 h -22.563 v 5.64 h 22.563 z m -7.31,7.239 h -7.939 v 14.497 h 7.939 z M 127.958,34.29 h -7.921 v 21.73 h 7.921 z m 11,1.306 c -1.797,-0.98 -3.776,-1.307 -7.99,-1.307 h -1.593 v 5.302 h 2.267 c 2.222,0 3.393,0.81 3.393,2.366 0,1.557 -1.015,2.265 -3.237,2.265 h -2.423 v 5.073 h 3.555 c 3.39,0 5.57,-0.596 7.244,-1.989 a 6.769,6.769 0 0 0 1.904,-2.42 c 0.439,-0.942 0.655,-1.972 0.63,-3.01 a 7.038,7.038 0 0 0 -0.996,-3.658 7.099,7.099 0 0 0 -2.754,-2.622 z"
       fill="#000000"
       id="path28"
       style="fill:#000000" />
  </g>
</svg>
