
<svg xmlns="http://www.w3.org/2000/svg" version="1.1" xmlns:xlink="http://www.w3.org/1999/xlink" preserveAspectRatio="none" x="0px" y="0px" width="1436px" height="1006px" viewBox="0 0 1436 1006">
<defs/>

<g id="Body">
<g>
<g>
<g>
<path fill="#FFFFFF" stroke="none" d="
M 1436 1006
L 1436 0 0 0 0 1006 1436 1006 Z"/>
</g>
</g>
</g>
</g>

<g id="Colors">
<g>
<g>
<g>
<path fill="#524F56" stroke="none" d="
M 1352.6 1010.2
L 1372.35 1010.2 1384.15 1008.2
Q 1376.25 1002.4 1367.6 997.65 1356.3 991.4 1344.2 987.15 1350.3 998.5 1352.6 1010.2
M 320.9 765.7
Q 311.3 767.85 301.05 773.95 293.8 778.3 283.25 786.6 270.75 796.55 258.9 807.1 255.9 805.9 252.35 803.55 243.35 797.6 239 797.2 233.8 796.8 228.4 800.55 224.65 803.15 219.75 808.7 208.05 822.25 204.75 825.6 195.9 834.7 187.5 839.6 177.6 845.35 154.8 853.35 135.65 861.55 130.15 874.2 127.1 881.35 127.65 891 128.05 897.5 130.5 908.2 130.65 908.8 130.8 909.45 130.9 909.85 131 910.25 126.1 915.5 121.8 922.6 121.3 923.4 120.8 924.3 114 937.75 108.2 951.5
L 103.55 963.45
Q 103.35 964.1 103.1 964.7 103 965 102.9 965.3 102.7 965.9 102.5 966.5 95.5 986.65 91 1008
L 92.95 1008.55 474.35 1008.55
Q 474.3 1008.5 474.35 1008.45 474.6 998.7 474.65 997.75 474.9 989.1 475.3 980.45 476.6 953.3 479.45 926.4 495.1 880.7 505.5 856.5 522.8 816.45 543.55 787.25 543.75 786.95 544 786.65 543.75 783.35 543.3 780.4 543.25 780.05 543.2 779.75 542.65 776.9 541.9 774.45 539.25 767.5 538 762.8 536.75 758.05 537.5 753.5 538.25 748.95 542.05 745.3 544.6 742.85 549.65 739.6 553.6 737.1 557.65 734.75 558.7 734.1 559.75 733.55 558.3 733.6 556.8 733.6 552.95 733.55 548.85 733.1 540.9 732.25 527.05 728.9 525.15 728.45 523.35 728.05 510.6 725.05 505.2 724.15 500.25 723.35 495.75 723.1 489.05 722.7 483.25 723.45 468.5 725.5 453.2 735.85 442.45 743.1 427.65 757.6 420.65 764.45 413.8 771.4 406.2 773.7 398.05 773.55 386.65 773.35 369 770.5 351.35 767.6 341.5 765.45 331.6 763.3 320.9 765.7 Z"/>

<path fill="#3E3A42" stroke="none" d="
M 865.7 705.3
Q 865.45 705.3 857.1 705.2 850.55 705.15 839.55 705.1 839.5 729.25 841.4 753.7 787.4 769.05 730.6 771.65 675.75 774.2 621.35 762.8 619.4 740.95 617.6 728.85 616.25 719.5 614.45 711 585.65 718.75 559.75 733.55 558.7 734.1 557.65 734.75 553.6 737.1 549.65 739.6 544.6 742.85 542.05 745.3 538.25 748.95 537.5 753.5 536.75 758.05 538 762.8 539.25 767.5 541.9 774.45 542.65 776.9 543.2 779.75 543.25 780.05 543.3 780.4 543.75 783.35 544 786.65 543.75 786.95 543.55 787.25 522.8 816.45 505.5 856.5 495.1 880.7 479.45 926.4 476.6 953.3 475.3 980.45 474.9 989.1 474.65 997.75 474.6 998.7 474.35 1008.45 474.3 1008.5 474.35 1008.55
L 486.15 1008.55 486.15 1009.75 516 1009.75 516 1010.2 1352.6 1010.2
Q 1350.3 998.5 1344.2 987.15 1344.15 987.1 1344.15 987.05 1337.7 975.1 1327.5 964.35 1318.75 954.9 1306.45 945.75 1297.1 938.8 1283 930.1 1223.15 893.45 1156.4 872.6 1125.4 862.8 1077 852.2 1003.2 836 998.45 835.1 993.7 834.2 992.05 833.85 990.35 833.5 984.75 832.35 979.15 831.2 973.35 829.7 964.1 827.25 957.75 822.95 955.8 821.6 950.3 817.05 945.7 813.25 942.5 811.45 936.3 808.1 928.95 808.1 924.95 808.1 921.3 809.1 921.8 805.85 920.9 801.9 920.35 799.5 916.75 790.4 913.1 781.25 912.15 769.1 911.15 756.9 913.5 745.5 915.85 734.1 916 731.7 916.6 724.15 913.75 719.2 910.1 712.65 898.7 709 898.6 709 898.5 708.95 886.1 705.2 866.15 705.25 865.95 705.25 865.7 705.3 Z"/>

<path fill="#BA9F96" stroke="none" d="
M 700.1 738.45
Q 696.9 737.25 679.25 729.2 667.2 723.65 644.4 714.75 623.15 706.4 612.3 701.75 613.45 706.2 614.45 711 616.25 719.5 617.6 728.85 619.4 740.95 621.35 762.8 675.75 774.2 730.6 771.65 787.4 769.05 841.4 753.7 839.5 729.25 839.55 705.1 839.55 695.45 839.85 685.85 827.65 694.1 811.75 704.35 795.5 714.75 787.55 719.55 773.9 727.7 762.5 733.2 751.7 738.45 742.85 741 731.8 744.1 722 743.6 712.2 743.1 700.1 738.45 Z"/>

<path fill="#EBDCD2" stroke="none" d="
M 779.15 382.8
Q 736.65 368.55 698.1 344.45 658.65 319.8 626.6 286.9
L 678.2 377.5
Q 643.05 345.85 614.85 307.05 583.95 264.6 563.85 216.8 567.25 274.6 577.4 332.15 581.65 332.95 585.85 334.1 603.6 338.9 617.45 348.55 616.55 348.15 615.6 348 597.55 341.7 578.65 339.05 582.6 360.65 587.55 382.25 570.2 361.25 557.3 337.25 549.55 337 541.7 337.35 521.45 338.25 502.5 342.9 500.9 377.9 503.3 412.95 494.05 387.05 483.3 360.1 489.3 383.55 492 408 478.05 391.15 466.8 369.55 464.35 442.1 474.1 514 491.05 542.55 513.45 562.65 528 575.7 543.8 584.25 537.4 584.4 530.65 583.4 516.4 581.25 502.75 574.2 492.15 568.65 481.5 559.85 484.25 574.45 486.95 583.9 490.85 597.85 496.4 608.45 503.2 621.65 516.75 636.7 551.5 674.85 609.4 700.45 610.75 701.05 612.3 701.75 623.15 706.4 644.4 714.75 667.2 723.65 679.25 729.2 696.9 737.25 700.1 738.45 712.2 743.1 722 743.6 731.8 744.1 742.85 741 751.7 738.45 762.5 733.2 773.9 727.7 787.55 719.55 795.5 714.75 811.75 704.35 827.65 694.1 839.85 685.85 854.6 675.9 863.9 668.9 891.9 647.95 910.25 626.85 917.65 618.3 924.7 609.8 936.55 595.65 942.85 577.5 943.25 576.35 943.65 575.15 949.45 557.35 948 539.3 942.15 546.45 935.55 553.1 917.75 571 894.8 582.4 913.5 555.75 926.75 520.85 940 485.9 945.45 444.65 948.2 423.45 949.3 402.3 937.65 357.9 915.75 317.7 923.85 353.95 926.95 391.6 892.8 345.8 855.8 303.15 853.2 303.6 850.65 304.1 846.3 305 842.05 306.05 857.2 333.95 872.5 361.85 843.15 338.95 815.6 314.25 795.3 321.9 776.15 333.6 792.3 320.05 810.1 311.4 810.85 311 811.65 310.65 756.1 260.25 708.05 202.15 731.75 262.25 779.15 382.8
M 903.8 397.55
Q 916.1 400.45 924.6 406.95 934.1 414.2 935.8 423.9 922.45 413.1 905.15 408.1 887.4 402.95 869.35 404.8 851.2 406.6 834.2 413.55 819.65 419.5 805.6 427.25 822.55 409.1 847.25 400.7 875.85 390.9 903.8 397.55
M 808.9 628.1
Q 797.6 641.75 781.25 650.2 752.7 664.75 712.15 663.2 697.75 662.6 686.2 660.2 672.55 657.35 661.65 651.85 658.1 650.05 654.9 647.95 647 642.85 640.85 636.15 634.55 629.25 630.9 621.5 632.25 622 633.7 622.45 638.1 623.8 642.9 623.9 645.25 623.95 647.65 623.7 653.35 623.2 661.3 620.9 665.8 619.6 674.75 616.85 691.35 612.15 713.55 610.95 724 610.35 753.3 610.4 778.35 610.45 792.75 609 809.15 607.3 822.65 603.15 821 608.5 818.45 613.6 814.65 621.15 808.9 628.1
M 622.95 444.3
Q 607.95 438.6 592.7 434.85 574.85 430.4 556.7 431.2 538.55 431.95 521.7 439.6 505.3 447 493.65 459.65 493.95 449.8 502.25 441.25 509.75 433.55 521.5 428.95 548.25 418.35 577.95 423.95 603.55 428.7 622.95 444.3
M 553.5 329.9
Q 546.85 316.7 541.5 302.6 524.55 257.95 523.05 211.25 509.55 260.9 504.6 312.65 503.35 325.65 502.7 338.65 523.4 331.85 542.65 330.35 548.1 329.9 553.5 329.9
M 839.45 301.3
Q 843.75 300.35 848.15 299.7 850.2 299.4 852.3 299.15 835.1 279.35 817.25 260.3 828.3 280.8 839.45 301.3 Z"/>

<path fill="#463539" stroke="none" d="
M 592.7 434.85
Q 607.95 438.6 622.95 444.3 603.55 428.7 577.95 423.95 548.25 418.35 521.5 428.95 509.75 433.55 502.25 441.25 493.95 449.8 493.65 459.65 505.3 447 521.7 439.6 538.55 431.95 556.7 431.2 574.85 430.4 592.7 434.85
M 924.6 406.95
Q 916.1 400.45 903.8 397.55 875.85 390.9 847.25 400.7 822.55 409.1 805.6 427.25 819.65 419.5 834.2 413.55 851.2 406.6 869.35 404.8 887.4 402.95 905.15 408.1 922.45 413.1 935.8 423.9 934.1 414.2 924.6 406.95 Z"/>

<path fill="#644345" stroke="none" d="
M 655.3 636.5
Q 654.05 635.65 652.75 634.6 647.1 629.85 642.9 623.9 638.1 623.8 633.7 622.45 632.25 622 630.9 621.5 634.55 629.25 640.85 636.15 647 642.85 654.9 647.95 654.25 643.9 654.65 639.7 654.8 637.75 655.3 636.5 Z"/>

<path fill="#41393B" stroke="none" d="
M 515.6 -5.4
L 484.05 -0.25
Q 462.55 17.5 443.85 40 418.3 70.55 396.85 101.05 375.35 131.55 349.55 177.1 321.35 226.8 308.5 247.45 251.85 338.7 176.5 414.2 152.1 438.75 132.55 453.45 123.1 460.6 113.7 466.35 108.25 469.9 102.7 473.25 79.45 487 52.15 497.45 77.5 500.1 103.15 496.1
L 104.65 495.9
Q 125.65 492.25 141.8 486.15 157.95 480.05 169.1 473.95 163.25 483.1 156.75 491.85 149 502.2 140.3 511.95 133.45 519.65 126.2 526.75 120.6 532.65 115.7 537.35 110.15 542.7 104.55 547.5 103.95 548 103.3 548.55 86.55 562.75 69.7 572.05 114.65 574.5 159.2 564.45 196.35 556.05 230.05 539.65 210 563.95 195.6 592.25 183.75 615.55 176.6 640.2 174.95 645.8 173.55 651.5 173.3 652.5 173.05 653.55 173.55 652.5 174.1 651.5 175.5 648.75 177.05 646.05 183.6 634.7 192.75 624 207.05 607.3 226.9 593.2 243.55 581.3 266.15 569.65 273.65 565.8 284.8 560.5 276.5 574.15 266.4 591.1 250.45 617.75 243.45 634.4 235.7 652.95 233.5 669.7 232.85 674.7 232.7 679.55 234.3 674.55 236.2 669.7 243.9 649.95 256.5 632.2 264.8 620.5 274.6 610.55 263.1 633.35 255.7 657.95 247.8 684.35 244.9 711.55 322.3 680.3 391.95 633.9 385.05 654.5 381 676.1 375.4 705.95 375.55 735.95 379.95 722.75 382.85 714.8 389.3 697.1 396 683.45 406.6 661.95 420.2 646.3 423.35 642.65 426.65 639.35 425.45 645.75 424.35 652.15 417 695.45 416 739.5 430.05 724.5 450.25 709.6 460.9 701.75 480.3 689.15 487.3 705.7 495.75 723.1 500.25 723.35 505.2 724.15 510.6 725.05 523.35 728.05 531.4 715.55 540.1 703.65 544.75 713.6 547.85 719.2 552.2 727.1 556.8 733.6 558.3 733.6 559.75 733.55 585.65 718.75 614.45 711 613.45 706.2 612.3 701.75 610.75 701.05 609.4 700.45 551.5 674.85 516.75 636.7 503.2 621.65 496.4 608.45 490.85 597.85 486.95 583.9 484.25 574.45 481.5 559.85 492.15 568.65 502.75 574.2 516.4 581.25 530.65 583.4 537.4 584.4 543.8 584.25 528 575.7 513.45 562.65 491.05 542.55 474.1 514 464.35 442.1 466.8 369.55 478.05 391.15 492 408 489.3 383.55 483.3 360.1 494.05 387.05 503.3 412.95 500.9 377.9 502.5 342.9 521.45 338.25 541.7 337.35 549.55 337 557.3 337.25 570.2 361.25 587.55 382.25 582.6 360.65 578.65 339.05 597.55 341.7 615.6 348 616.55 348.15 617.45 348.55 603.6 338.9 585.85 334.1 581.65 332.95 577.4 332.15 567.25 274.6 563.85 216.8 583.95 264.6 614.85 307.05 643.05 345.85 678.2 377.5
L 626.6 286.9
Q 658.65 319.8 698.1 344.45 736.65 368.55 779.15 382.8 731.75 262.25 708.05 202.15 756.1 260.25 811.65 310.65 810.85 311 810.1 311.4 792.3 320.05 776.15 333.6 795.3 321.9 815.6 314.25 843.15 338.95 872.5 361.85 857.2 333.95 842.05 306.05 846.3 305 850.65 304.1 853.2 303.6 855.8 303.15 892.8 345.8 926.95 391.6 923.85 353.95 915.75 317.7 937.65 357.9 949.3 402.3 948.2 423.45 945.45 444.65 940 485.9 926.75 520.85 913.5 555.75 894.8 582.4 917.75 571 935.55 553.1 942.15 546.45 948 539.3 949.45 557.35 943.65 575.15 943.25 576.35 942.85 577.5 936.55 595.65 924.7 609.8 917.65 618.3 910.25 626.85 891.9 647.95 863.9 668.9 854.6 675.9 839.85 685.85 839.55 695.45 839.55 705.1 850.55 705.15 857.1 705.2 865.45 705.3 865.7 705.3 865.95 705.25 866.15 705.25 886.1 705.2 898.5 708.95 898.6 709 898.7 709 909.35 684.2 924 662.05 938.7 681.5 947.7 691.8 962.45 708.65 977.1 719.9 969.75 684.85 969.5 648.6 984.4 666.75 1003.2 681.55 1024.3 698.1 1048.35 708.9 1044 680.3 1045.5 650.7 1082.15 652.85 1117.95 663 1147.15 671.35 1175.05 685.4 1146.2 611.3 1104.65 549.5 1124.65 564.5 1143.1 583.95 1162.75 604.7 1179.8 629.7 1164.5 571.7 1138.2 523.35 1165.9 538.75 1202.2 536.85 1219.45 535.8 1241 530.45 1251.9 527.75 1272.75 521.45 1245.25 511.95 1219.25 494.55 1197.55 480 1177.9 460.55 1217.95 468.95 1258.9 464.75 1306 460.05 1350.25 439 1318.7 431.75 1282.2 411.35 1260.4 399.1 1222.65 373.05 1257.45 371.8 1282.5 366.95 1322.85 359.25 1354.95 340.3 1307.15 352.3 1256.65 335.7 1206.65 319.2 1159.2 279.75 1154.35 275.75 1149.55 271.5 1103.8 230.9 1058.3 167.25 1048.25 153.15 1037.2 137.4 1026.5 122.45 1013.4 104.05 981.5 59.35 969.25 43.9 948.8 18.2 928.95 -0.05
L 914.8 -1.85 903.95 -4.95 515.6 -5.4
M 848.15 299.7
Q 843.75 300.35 839.45 301.3 828.3 280.8 817.25 260.3 835.1 279.35 852.3 299.15 850.2 299.4 848.15 299.7
M 911.25 299.15
Q 915.7 299.6 920.5 300.15 915.95 299.75 911.35 299.5 911.3 299.3 911.25 299.15
M 541.5 302.6
Q 546.85 316.7 553.5 329.9 548.1 329.9 542.65 330.35 523.4 331.85 502.7 338.65 503.35 325.65 504.6 312.65 509.55 260.9 523.05 211.25 524.55 257.95 541.5 302.6 Z"/>
</g>
</g>
</g>
</g>

<g id="Drawing">
<g>
<g>
<g>
<path fill="#FFFFFF" stroke="none" d="
M 647.65 623.7
Q 645.25 623.95 642.9 623.9 647.1 629.85 652.75 634.6 654.05 635.65 655.3 636.5 657.5 638 659.65 638.75 663.9 640.2 667.15 638.6 668.7 637.85 672.15 634.45 675.05 631.6 677.4 631.2 679.2 630.9 681.4 631.6 682.15 631.85 685.25 633.2 690.6 635.35 696.5 635.3 702.4 635.2 707.65 632.95 702.4 635.2 696.5 635.3 690.6 635.35 685.25 633.2 682.15 631.85 681.4 631.6 679.2 630.9 677.4 631.2 675.05 631.6 672.15 634.45 668.7 637.85 667.15 638.6 663.9 640.2 659.65 638.75 657.5 638 655.3 636.5 654.8 637.75 654.65 639.7 654.25 643.9 654.9 647.95 658.1 650.05 661.65 651.85 672.55 657.35 686.2 660.2 697.75 662.6 712.15 663.2 752.7 664.75 781.25 650.2 797.6 641.75 808.9 628.1 814.65 621.15 818.45 613.6 811.55 619.25 802.9 621.7 800.25 622.45 798.65 621.85 798.4 621.75 797.55 621.3 796.9 620.9 796.4 620.85 795.2 620.6 793 621.7 786.75 625.2 779.7 626.85 772.65 628.5 765.5 628.2 772.65 628.5 779.7 626.85 786.75 625.2 793 621.7 795.2 620.6 796.4 620.85 796.9 620.9 797.55 621.3 798.4 621.75 798.65 621.85 800.25 622.45 802.9 621.7 811.55 619.25 818.45 613.6 821 608.5 822.65 603.15 809.15 607.3 792.75 609 778.35 610.45 753.3 610.4 724 610.35 713.55 610.95 691.35 612.15 674.75 616.85 665.8 619.6 661.3 620.9 653.35 623.2 647.65 623.7 Z"/>
</g>
</g>

<g>
<path stroke="#000000" stroke-width="1" stroke-linejoin="round" stroke-linecap="round" fill="none" d="
M 91 1008
Q 95.5 986.65 102.5 966.5 102.7 965.9 102.9 965.3 103 965 103.1 964.7
L 103.3 964.1
Q 103.4 963.8 103.55 963.45
L 108.2 951.5
Q 114 937.75 120.8 924.3 121.3 923.4 121.8 922.6 126.1 915.5 131 910.25 130.9 909.85 130.8 909.45 130.65 908.8 130.5 908.2 128.05 897.5 127.65 891 127.1 881.35 130.15 874.2 135.65 861.55 154.8 853.35 177.6 845.35 187.5 839.6 195.9 834.7 204.75 825.6 208.05 822.25 219.75 808.7 224.65 803.15 228.4 800.55 233.8 796.8 239 797.2 243.35 797.6 252.35 803.55 255.9 805.9 258.9 807.1 270.75 796.55 283.25 786.6 293.8 778.3 301.05 773.95 311.3 767.85 320.9 765.7 331.6 763.3 341.5 765.45 351.35 767.6 369 770.5 386.65 773.35 398.05 773.55 406.2 773.7 413.8 771.4 420.65 764.45 427.65 757.6 442.45 743.1 453.2 735.85 468.5 725.5 483.25 723.45 489.05 722.7 495.75 723.1 487.3 705.7 480.3 689.15 460.9 701.75 450.25 709.6 430.05 724.5 416 739.5 417 695.45 424.35 652.15 425.45 645.75 426.65 639.35 423.35 642.65 420.2 646.3 406.6 661.95 396 683.45 389.3 697.1 382.85 714.8 379.95 722.75 375.55 735.95 375.4 705.95 381 676.1 385.05 654.5 391.95 633.9 322.3 680.3 244.9 711.55 247.8 684.35 255.7 657.95 263.1 633.35 274.6 610.55 264.8 620.5 256.5 632.2 243.9 649.95 236.2 669.7 234.3 674.55 232.7 679.55 232.85 674.7 233.5 669.7 235.7 652.95 243.45 634.4 250.45 617.75 266.4 591.1 276.5 574.15 284.8 560.5 273.65 565.8 266.15 569.65 243.55 581.3 226.9 593.2 207.05 607.3 192.75 624 183.6 634.7 177.05 646.05 175.5 648.75 174.1 651.5 173.55 652.5 173.05 653.55 173.3 652.5 173.55 651.5 174.95 645.8 176.6 640.2 183.75 615.55 195.6 592.25 210 563.95 230.05 539.65 196.35 556.05 159.2 564.45 114.65 574.5 69.7 572.05 86.55 562.75 103.3 548.55 103.95 548 104.55 547.5 110.15 542.7 115.7 537.35 120.6 532.65 126.2 526.75 133.45 519.65 140.3 511.95 149 502.2 156.75 491.85 163.25 483.1 169.1 473.95 157.95 480.05 141.8 486.15 125.65 492.25 104.65 495.9
L 103.15 496.1
Q 77.5 500.1 52.15 497.45 79.45 487 102.7 473.25 108.25 469.9 113.7 466.35 123.1 460.6 132.55 453.45 152.1 438.75 176.5 414.2 251.85 338.7 308.5 247.45 321.35 226.8 349.55 177.1 375.35 131.55 396.85 101.05 418.3 70.55 443.85 40 462.55 17.5 484.05 -0.25
L 515.6 -5.4 903.95 -4.95 914.8 -1.85 928.95 -0.05
Q 948.8 18.2 969.25 43.9 981.5 59.35 1013.4 104.05 1026.5 122.45 1037.2 137.4 1048.25 153.15 1058.3 167.25 1103.8 230.9 1149.55 271.5 1154.35 275.75 1159.2 279.75 1206.65 319.2 1256.65 335.7 1307.15 352.3 1354.95 340.3 1322.85 359.25 1282.5 366.95 1257.45 371.8 1222.65 373.05 1260.4 399.1 1282.2 411.35 1318.7 431.75 1350.25 439 1306 460.05 1258.9 464.75 1217.95 468.95 1177.9 460.55 1197.55 480 1219.25 494.55 1245.25 511.95 1272.75 521.45 1251.9 527.75 1241 530.45 1219.45 535.8 1202.2 536.85 1165.9 538.75 1138.2 523.35 1164.5 571.7 1179.8 629.7 1162.75 604.7 1143.1 583.95 1124.65 564.5 1104.65 549.5 1146.2 611.3 1175.05 685.4 1147.15 671.35 1117.95 663 1082.15 652.85 1045.5 650.7 1044 680.3 1048.35 708.9 1024.3 698.1 1003.2 681.55 984.4 666.75 969.5 648.6 969.75 684.85 977.1 719.9 962.45 708.65 947.7 691.8 938.7 681.5 924 662.05 909.35 684.2 898.7 709 910.1 712.65 913.75 719.2 916.6 724.15 916 731.7 915.85 734.1 913.5 745.5 911.15 756.9 912.15 769.1 913.1 781.25 916.75 790.4 920.35 799.5 920.9 801.9 921.8 805.85 921.3 809.1 924.95 808.1 928.95 808.1 936.3 808.1 942.5 811.45 945.7 813.25 950.3 817.05 955.8 821.6 957.75 822.95 964.1 827.25 973.35 829.7 979.15 831.2 984.75 832.35 990.35 833.5 992.05 833.85 993.7 834.2 998.45 835.1 1003.2 836 1077 852.2 1125.4 862.8 1156.4 872.6 1223.15 893.45 1283 930.1 1297.1 938.8 1306.45 945.75 1318.75 954.9 1327.5 964.35 1337.7 975.1 1344.15 987.05 1344.15 987.1 1344.2 987.15 1356.3 991.4 1367.6 997.65 1376.25 1002.4 1384.15 1008.2
M 1344.2 987.15
Q 1350.3 998.5 1352.6 1010.2
M 431.6 265.85
Q 433.7 274.5 435.8 282.6 445.65 320.65 455.85 345.75 460.95 358.3 466.8 369.55 478.05 391.15 492 408 489.3 383.55 483.3 360.1 481.95 354.85 480.45 349.75 470.8 353.35 461.4 358.1 470.55 351.65 479.8 347.55 473.85 327.7 465.5 308.6
M 611.85 261.05
L 626.6 286.9
Q 658.65 319.8 698.1 344.45 736.65 368.55 779.15 382.8 731.75 262.25 708.05 202.15 703.4 190.3 699.65 180.85 698.6 178.2 697.65 175.75
M 553.5 329.9
Q 546.85 316.7 541.5 302.6 524.55 257.95 523.05 211.25 509.55 260.9 504.6 312.65 503.35 325.65 502.7 338.65 523.4 331.85 542.65 330.35 548.1 329.9 553.5 329.9 565.7 329.85 577.4 332.15 567.25 274.6 563.85 216.8 563.15 205.2 562.75 193.55
M 592.15 387.7
Q 589.8 385 587.55 382.25 570.2 361.25 557.3 337.25 549.55 337 541.7 337.35 521.45 338.25 502.5 342.9 500.9 377.9 503.3 412.95 494.05 387.05 483.3 360.1
M 479.8 347.55
Q 490.5 342.8 500.4 339.4 501.55 339 502.7 338.65
M 577.4 332.15
Q 581.65 332.95 585.85 334.1 603.6 338.9 617.45 348.55
L 623.25 351.7
M 617.45 348.55
Q 617.6 348.65 617.75 348.75 616.65 348.35 615.6 348 597.55 341.7 578.65 339.05 582.6 360.65 587.55 382.25
M 615.6 348
Q 616.55 348.15 617.45 348.55
M 578.65 339.05
Q 568.1 337.6 557.3 337.25
M 563.85 216.8
Q 583.95 264.6 614.85 307.05 643.05 345.85 678.2 377.5
L 626.6 286.9
M 502.5 342.9
Q 491.25 345.65 480.45 349.75
M 179.05 468.15
Q 175.65 470.25 172.2 472.25 171.4 472.7 170.65 473.1 169.85 473.55 169.1 473.95
M 288.7 558.7
Q 286.7 559.6 284.8 560.5
M 247.6 530.4
Q 238.95 535.3 230.05 539.65
M 286.25 599.7
Q 285.35 600.45 284.5 601.2 279.35 605.65 274.6 610.55
M 530.85 412.7
Q 551.45 406.75 573.45 409.15 593.35 411.3 611.05 419.55 611.4 419.7 611.75 419.9
M 592.7 434.85
Q 574.85 430.4 556.7 431.2 538.55 431.95 521.7 439.6 505.3 447 493.65 459.65 493.95 449.8 502.25 441.25 509.75 433.55 521.5 428.95 548.25 418.35 577.95 423.95 603.55 428.7 622.95 444.3 607.95 438.6 592.7 434.85 Z
M 522 507.95
Q 518.65 516.2 516.25 525.95
M 466.8 369.55
Q 464.35 442.1 474.1 514 491.05 542.55 513.45 562.65 528 575.7 543.8 584.25 549.2 584.1 554.4 583.1
M 457.9 536.6
Q 469.75 550.2 481.5 559.85 492.15 568.65 502.75 574.2 516.4 581.25 530.65 583.4 537.4 584.4 543.8 584.25
M 592.85 501.6
Q 594.95 510.45 596.4 520.1
M 568.4 503.25
Q 565.95 517.15 568.4 532.25
M 546.85 493.35
Q 543.4 508.95 542.25 525.85
M 430.25 403.35
Q 432.55 411.05 434.7 417.95 435.5 420.45 436.25 422.85 442.8 443.85 447.55 456.75 459.6 489.6 473.9 513.7 474 513.85 474.1 514
M 395.05 625.1
Q 393.4 629.5 391.95 633.9
M 414.5 771.2
Q 414.15 771.3 413.8 771.4 371.4 814.6 336.75 863.3
M 642.9 623.9
Q 638.1 623.8 633.7 622.45 632.25 622 630.9 621.5 634.55 629.25 640.85 636.15 647 642.85 654.9 647.95 654.25 643.9 654.65 639.7 654.8 637.75 655.3 636.5 654.05 635.65 652.75 634.6 647.1 629.85 642.9 623.9 645.25 623.95 647.65 623.7 653.35 623.2 661.3 620.9 665.8 619.6 674.75 616.85 691.35 612.15 713.55 610.95 724 610.35 753.3 610.4 778.35 610.45 792.75 609 809.15 607.3 822.65 603.15 821 608.5 818.45 613.6 814.65 621.15 808.9 628.1 797.6 641.75 781.25 650.2 752.7 664.75 712.15 663.2 697.75 662.6 686.2 660.2 672.55 657.35 661.65 651.85 658.1 650.05 654.9 647.95
M 495.75 723.1
Q 500.25 723.35 505.2 724.15 510.6 725.05 523.35 728.05 531.4 715.55 540.1 703.65 544.75 713.6 547.85 719.2 552.2 727.1 556.8 733.6 558.3 733.6 559.75 733.55 585.65 718.75 614.45 711 613.45 706.2 612.3 701.75 610.75 701.05 609.4 700.45 551.5 674.85 516.75 636.7 503.2 621.65 496.4 608.45 490.85 597.85 486.95 583.9 484.25 574.45 481.5 559.85
M 559.75 733.55
Q 558.7 734.1 557.65 734.75 553.6 737.1 549.65 739.6 544.6 742.85 542.05 745.3 538.25 748.95 537.5 753.5 536.75 758.05 538 762.8 539.25 767.5 541.9 774.45 542.65 776.9 543.2 779.75 543.25 780.05 543.3 780.4 543.75 783.35 544 786.65 544 786.75 544 786.85 544.05 788.2 544.1 789.65 544.15 791.65 543.9 801.45 543.85 803.25 543.8 805.3 543.25 824.95 549.25 834.45 553.2 840.75 560.95 845.8 565.85 849 575.75 853.6 626.25 877 654.4 885.8 661.4 888 668.25 889.8 692.3 896 714.4 896.35 717.85 896.35 721.3 896.3 726.1 896.15 730.85 895.75
M 556.8 733.6
Q 552.95 733.55 548.85 733.1 540.9 732.25 527.05 728.9 525.15 728.45 523.35 728.05
M 544 786.65
Q 543.75 786.95 543.55 787.25 522.8 816.45 505.5 856.5 495.1 880.7 479.45 926.4 476.6 953.3 475.3 980.45 474.9 989.1 474.65 997.75 474.6 998.75 474.3 1009
M 614.45 711
Q 616.25 719.5 617.6 728.85 619.4 740.95 621.35 762.8 675.75 774.2 730.6 771.65 787.4 769.05 841.4 753.7 839.5 729.25 839.55 705.1 839.55 695.45 839.85 685.85 827.65 694.1 811.75 704.35 795.5 714.75 787.55 719.55 773.9 727.7 762.5 733.2 751.7 738.45 742.85 741 731.8 744.1 722 743.6 712.2 743.1 700.1 738.45 696.9 737.25 679.25 729.2 667.2 723.65 644.4 714.75 623.15 706.4 612.3 701.75
M 580.1 752.15
Q 586.5 754.1 592.9 755.85 607.1 759.8 621.35 762.8
M 492 681.6
Q 485.8 685.55 480.3 689.15
M 678.2 377.5
Q 681.6 380.55 685.05 383.5
M 890.65 237.95
Q 890.8 238.35 891 238.8 892.3 241.95 893.55 245.15 904 271.55 911.25 299.15 915.7 299.6 920.5 300.15
L 925.3 300.7
Q 929.1 301.15 933.15 301.7
M 811.65 310.65
Q 810.85 311 810.1 311.4 792.3 320.05 776.15 333.6 795.3 321.9 815.6 314.25 828.6 309.3 842.05 306.05 846.3 305 850.65 304.1 853.2 303.6 855.8 303.15 883.6 298.05 911.35 299.5 911.3 299.3 911.25 299.15 900.3 298.05 891.3 297.65 870.75 296.75 852.3 299.15 850.2 299.4 848.15 299.7 843.75 300.35 839.45 301.3 824.85 304.45 811.65 310.65 756.1 260.25 708.05 202.15
M 842.05 306.05
Q 857.2 333.95 872.5 361.85 843.15 338.95 815.6 314.25
M 886.4 382.35
Q 865.25 379.45 843.5 385.25 819.25 391.65 799.9 406.2
M 946.3 298.15
Q 947.6 313.6 948.5 328.65 949.45 345.8 949.85 362.4 950.35 382.3 949.3 402.3 948.2 423.45 945.45 444.65 940 485.9 926.75 520.85 913.5 555.75 894.8 582.4 917.75 571 935.55 553.1 942.15 546.45 948 539.3 955.1 530.5 961.05 520.95 962.65 518.4 964.15 515.75
M 920.5 300.15
Q 915.95 299.75 911.35 299.5 913.05 306 914.6 312.6 915.2 315.15 915.75 317.7 937.65 357.9 949.3 402.3
M 915.75 317.7
Q 923.85 353.95 926.95 391.6 892.8 345.8 855.8 303.15
M 852.3 299.15
Q 835.1 279.35 817.25 260.3 828.3 280.8 839.45 301.3
M 782.75 196.15
Q 794.35 217.85 806.05 239.55 811.6 249.9 817.25 260.3
M 834.2 413.55
Q 851.2 406.6 869.35 404.8 887.4 402.95 905.15 408.1 922.45 413.1 935.8 423.9 934.1 414.2 924.6 406.95 916.1 400.45 903.8 397.55 875.85 390.9 847.25 400.7 822.55 409.1 805.6 427.25 819.65 419.5 834.2 413.55 Z
M 948 539.3
Q 949.45 557.35 943.65 575.15 943.25 576.35 942.85 577.5 941.15 588.25 938.2 598.85 933.05 617.4 924.5 634.3 946.25 620.2 963.35 599.9 974.45 586.7 982.65 571.95 985.15 567.45 987.4 562.8
M 915.75 481.3
Q 921.1 489.05 924.65 496.35
M 861.55 472.25
Q 865.65 492.55 868.2 511.6
M 887.2 483.1
Q 891.35 494.5 895.2 507.1
M 832.3 483.7
Q 834.2 497.3 835.15 511.1
M 690.15 557.65
Q 699.05 565.1 707.75 574.15
M 747.2 561.45
L 741.65 566.45
M 765.5 628.2
Q 772.65 628.5 779.7 626.85 786.75 625.2 793 621.7 795.2 620.6 796.4 620.85 796.9 620.9 797.55 621.3 798.4 621.75 798.65 621.85 800.25 622.45 802.9 621.7 811.55 619.25 818.45 613.6
M 655.3 636.5
Q 657.5 638 659.65 638.75 663.9 640.2 667.15 638.6 668.7 637.85 672.15 634.45 675.05 631.6 677.4 631.2 679.2 630.9 681.4 631.6 682.15 631.85 685.25 633.2 690.6 635.35 696.5 635.3 702.4 635.2 707.65 632.95
M 942.85 577.5
Q 936.55 595.65 924.7 609.8 917.65 618.3 910.25 626.85 891.9 647.95 863.9 668.9 854.6 675.9 839.85 685.85
M 839.55 705.1
Q 850.55 705.15 857.1 705.2 865.45 705.3 865.7 705.3 865.95 705.25 866.15 705.25 886.1 705.2 898.5 708.95 898.6 709 898.7 709
M 841.4 753.7
Q 849.75 751.3 858 748.65 864.85 746.4 871.65 744 873.95 743.15 876.2 742.35
M 1095.15 535.8
Q 1100 542.6 1104.65 549.5
M 921.3 809.1
Q 921.1 810.25 920.75 811.35 919.7 814.15 917.65 816.35 915.55 818.55 906 826.85 898.9 832.95 889 842.9
M 492.9 837.65
Q 491.75 843.4 490.65 849.2 483.5 887.5 479.45 926.4
M 544 786.85
L 540.8 826.25
Q 538 863.5 546.45 901.85 560 963.15 599.95 1010.2
M 239.25 802.45
Q 238.95 803.05 238.75 803.65 233.7 816.05 232.7 831.9 245.4 819.1 258.9 807.1
M 232.7 831.9
Q 232.6 833.05 232.55 834.2 231.9 848.6 234.65 870.7 243.65 940.3 266.4 1007
M 103.55 963.45
Q 103.35 964.1 103.1 964.7
M 131 910.25
Q 143.7 961.65 166.45 1009.75"/>
</g>
</g>
</g>
</svg>
